<?xml version="1.0" encoding="UTF-8"?>
<svg id="_图层_1" data-name="图层_1" xmlns="http://www.w3.org/2000/svg" version="1.1" viewBox="0 0 829.76 196.85">
  <!-- Generator: Adobe Illustrator 30.1.0, SVG Export Plug-In . SVG Version: 2.1.1 Build 136)  -->
  <defs>
    <style>
      .st0 {
        fill: #fff;
      }

      .st1 {
        fill: #2a2931;
      }

      .st2 {
        fill: #d06a56;
      }

      .st3 {
        display: none;
      }
    </style>
  </defs>
  <g>
    <path class="st2" d="M226.24,170.64L182.77,8.38c-.48-1.8-2.34-2.87-4.14-2.39h0c-29.82,7.99-51.95,30.33-60.96,57.6-1.4,4.24-7.49,4.03-8.65-.29L92.73,2.51c-.48-1.8-2.34-2.87-4.14-2.39L6.65,22.07c-1.8.48-2.87,2.34-2.39,4.14l43.53,162.45c.48,1.8,2.32,2.79,4.09,2.2h0c29.82-7.99,51.95-30.33,60.96-57.6,1.4-4.24,7.49-4.03,8.65.29l16.29,60.8c.48,1.8,2.34,2.87,4.14,2.39l81.94-21.96c1.8-.48,2.87-2.34,2.39-4.14Z"/>
    <g>
      <g>
        <path class="st1" d="M271.88,76.43V27.15h11.97v49.28h-11.97ZM276.53,57.21l.07-10.7h32.17v10.7h-32.24ZM302.44,76.43V27.15h11.97v49.28h-11.97Z"/>
        <path class="st1" d="M320.46,76.43l19.5-49.28h10.14l19.36,49.28h-12.11l-9.29-24.99c-.38-.99-.75-2.04-1.13-3.17-.38-1.13-.75-2.29-1.13-3.48-.38-1.2-.74-2.37-1.09-3.52-.35-1.15-.65-2.22-.88-3.2l2.11-.07c-.28,1.17-.6,2.32-.95,3.45s-.7,2.24-1.06,3.34c-.35,1.1-.74,2.21-1.16,3.31-.42,1.1-.82,2.24-1.2,3.41l-9.29,24.92h-11.83ZM329.75,66.99l3.73-9.01h22.67l3.66,9.01h-30.06Z"/>
        <path class="st1" d="M375.58,76.43V27.15h21.26c3.1,0,5.85.7,8.27,2.11,2.42,1.41,4.34,3.33,5.77,5.77,1.43,2.44,2.15,5.19,2.15,8.24s-.72,6.04-2.15,8.55c-1.43,2.51-3.36,4.49-5.77,5.95-2.42,1.46-5.17,2.18-8.27,2.18h-9.29v16.47h-11.97ZM387.33,49.47h7.81c1.03,0,1.97-.26,2.82-.77.84-.52,1.52-1.22,2.04-2.11.52-.89.77-1.92.77-3.1s-.26-2.25-.77-3.1c-.52-.84-1.2-1.5-2.04-1.97-.84-.47-1.78-.7-2.82-.7h-7.81v11.76Z"/>
        <path class="st1" d="M422.18,76.43V27.15h21.26c3.1,0,5.85.7,8.27,2.11,2.42,1.41,4.34,3.33,5.77,5.77,1.43,2.44,2.15,5.19,2.15,8.24s-.72,6.04-2.15,8.55c-1.43,2.51-3.36,4.49-5.77,5.95-2.42,1.46-5.17,2.18-8.27,2.18h-9.29v16.47h-11.97ZM433.93,49.47h7.81c1.03,0,1.97-.26,2.82-.77.84-.52,1.52-1.22,2.04-2.11.52-.89.77-1.92.77-3.1s-.26-2.25-.77-3.1c-.52-.84-1.2-1.5-2.04-1.97-.84-.47-1.78-.7-2.82-.7h-7.81v11.76Z"/>
        <path class="st1" d="M481.52,76.43v-24.57l.49,3.45-19.92-28.16h13.59l15.21,21.82-6.2-.21,13.73-21.61h13.16l-19.08,28.93,1.06-4.79v25.13h-12.04Z"/>
        <path class="st1" d="M562.69,77.13c-3.94,0-7.51-.63-10.7-1.9-3.19-1.27-5.94-3.05-8.24-5.35-2.3-2.3-4.06-5.01-5.28-8.13-1.22-3.12-1.83-6.51-1.83-10.17s.64-7.03,1.94-10.1c1.29-3.07,3.13-5.76,5.53-8.06,2.39-2.3,5.22-4.08,8.48-5.35,3.26-1.27,6.82-1.9,10.66-1.9,2.72,0,5.29.35,7.71,1.06,2.42.7,4.61,1.67,6.58,2.89,1.97,1.22,3.64,2.63,5,4.22l-7.25,7.67c-1.17-1.13-2.38-2.06-3.63-2.82-1.24-.75-2.57-1.35-3.98-1.8-1.41-.45-2.91-.67-4.51-.67-2.07,0-3.95.38-5.67,1.13-1.71.75-3.22,1.8-4.51,3.13-1.29,1.34-2.29,2.91-2.99,4.72-.7,1.81-1.06,3.77-1.06,5.88s.37,4.08,1.13,5.91c.75,1.83,1.78,3.41,3.1,4.75,1.31,1.34,2.87,2.39,4.68,3.17,1.81.77,3.74,1.16,5.81,1.16,1.45,0,2.83-.23,4.12-.7,1.29-.47,2.4-1.1,3.34-1.9.94-.8,1.69-1.75,2.25-2.85.56-1.1.84-2.29.84-3.56v-1.83l1.55,2.39h-13.59v-9.36h23.16c.09.52.16,1.22.21,2.11.05.89.08,1.76.11,2.6.02.84.04,1.48.04,1.9,0,3.19-.58,6.11-1.72,8.76-1.15,2.65-2.76,4.94-4.82,6.86-2.07,1.93-4.51,3.43-7.32,4.51-2.82,1.08-5.87,1.62-9.15,1.62Z"/>
        <path class="st1" d="M594.86,76.43V27.15h11.97v38.72h21.96v10.56h-33.93Z"/>
        <path class="st1" d="M658.78,77.13c-3.76,0-7.18-.63-10.28-1.9-3.1-1.27-5.8-3.05-8.1-5.35-2.3-2.3-4.08-5-5.35-8.1-1.27-3.1-1.9-6.5-1.9-10.21s.63-7.11,1.9-10.21,3.05-5.8,5.35-8.1,5-4.08,8.1-5.35c3.1-1.27,6.5-1.9,10.21-1.9s7.11.63,10.21,1.9c3.1,1.27,5.8,3.05,8.1,5.35,2.3,2.3,4.07,5,5.31,8.1,1.24,3.1,1.86,6.5,1.86,10.21s-.62,7.05-1.86,10.17c-1.24,3.12-3.02,5.83-5.31,8.13-2.3,2.3-5,4.08-8.1,5.35-3.1,1.27-6.48,1.9-10.14,1.9ZM658.71,65.87c1.92,0,3.7-.35,5.32-1.06,1.62-.7,3.03-1.7,4.22-2.99,1.2-1.29,2.12-2.8,2.78-4.54.66-1.74.99-3.64.99-5.7s-.33-3.97-.99-5.7c-.66-1.74-1.58-3.25-2.78-4.54-1.2-1.29-2.6-2.29-4.22-2.99-1.62-.7-3.39-1.06-5.32-1.06s-3.7.35-5.31,1.06c-1.62.7-3.04,1.7-4.26,2.99-1.22,1.29-2.15,2.8-2.78,4.54-.63,1.74-.95,3.64-.95,5.7s.32,3.98.95,5.74c.63,1.76,1.56,3.27,2.78,4.54,1.22,1.27,2.64,2.25,4.26,2.96s3.39,1.06,5.31,1.06Z"/>
        <path class="st1" d="M693.48,76.43V27.15h21.75c3.38,0,6.24.48,8.59,1.44,2.35.96,4.12,2.35,5.32,4.15,1.2,1.81,1.8,3.98,1.8,6.51,0,2.82-.69,5.19-2.08,7.11-1.38,1.92-3.39,3.22-6.02,3.87l-.14-1.34c2.21.47,4.12,1.29,5.74,2.46,1.62,1.17,2.87,2.62,3.77,4.33.89,1.71,1.34,3.65,1.34,5.81,0,2.49-.42,4.66-1.27,6.51-.84,1.85-2.07,3.41-3.66,4.68s-3.46,2.21-5.6,2.82c-2.14.61-4.49.92-7.07.92h-22.46ZM704.75,46.93h8.8c1.22,0,2.26-.2,3.13-.6.87-.4,1.52-.96,1.97-1.69.45-.73.67-1.61.67-2.64,0-1.5-.52-2.69-1.55-3.56-1.03-.87-2.58-1.3-4.65-1.3h-8.38v9.79ZM704.75,66.43h10.77c1.31,0,2.43-.21,3.34-.63.92-.42,1.63-1.04,2.15-1.87.52-.82.77-1.82.77-2.99,0-1.08-.27-1.99-.81-2.75-.54-.75-1.3-1.33-2.29-1.72-.99-.4-2.16-.6-3.52-.6h-10.42v10.56Z"/>
        <path class="st1" d="M736.56,76.43l19.5-49.28h10.14l19.36,49.28h-12.11l-9.29-24.99c-.38-.99-.75-2.04-1.13-3.17-.38-1.13-.75-2.29-1.13-3.48-.38-1.2-.74-2.37-1.09-3.52-.35-1.15-.65-2.22-.88-3.2l2.11-.07c-.28,1.17-.6,2.32-.95,3.45-.35,1.13-.7,2.24-1.06,3.34-.35,1.1-.74,2.21-1.16,3.31-.42,1.1-.82,2.24-1.2,3.41l-9.29,24.92h-11.83ZM745.86,66.99l3.73-9.01h22.67l3.66,9.01h-30.06Z"/>
        <path class="st1" d="M791.68,76.43V27.15h11.97v38.72h21.96v10.56h-33.93Z"/>
      </g>
      <g>
        <path class="st1" d="M297.08,170.83c-3.61,0-7.02-.51-10.23-1.53-3.2-1.02-6.13-2.56-8.79-4.6-2.66-2.05-5.01-4.57-7.06-7.57l5.52-6.14c3.2,4.57,6.49,7.77,9.87,9.61,3.37,1.84,7.17,2.76,11.4,2.76,3.07,0,5.86-.51,8.38-1.53,2.52-1.02,4.5-2.45,5.93-4.29,1.43-1.84,2.15-3.95,2.15-6.34,0-1.57-.26-2.97-.77-4.19-.51-1.23-1.28-2.32-2.3-3.27-1.02-.95-2.28-1.81-3.78-2.56-1.5-.75-3.22-1.43-5.16-2.05-1.94-.61-4.11-1.23-6.49-1.84-3.48-.82-6.53-1.79-9.15-2.91-2.62-1.12-4.84-2.51-6.65-4.14-1.81-1.64-3.17-3.53-4.09-5.68-.92-2.15-1.38-4.69-1.38-7.62s.6-5.38,1.79-7.77c1.19-2.39,2.85-4.45,4.96-6.19,2.11-1.74,4.6-3.08,7.46-4.04,2.86-.95,5.93-1.43,9.2-1.43,3.68,0,6.97.5,9.87,1.48,2.9.99,5.47,2.44,7.72,4.35,2.25,1.91,4.19,4.19,5.83,6.85l-5.62,5.52c-1.43-2.25-3.05-4.19-4.86-5.83-1.81-1.64-3.78-2.88-5.93-3.73-2.15-.85-4.52-1.28-7.11-1.28-3,0-5.64.51-7.92,1.53-2.28,1.02-4.07,2.44-5.37,4.24-1.3,1.81-1.94,3.87-1.94,6.19,0,1.7.31,3.22.92,4.55.61,1.33,1.58,2.49,2.91,3.48,1.33.99,3.07,1.88,5.21,2.66,2.15.78,4.72,1.52,7.72,2.2,3.54.82,6.73,1.81,9.56,2.97,2.83,1.16,5.25,2.54,7.26,4.14,2.01,1.6,3.54,3.46,4.6,5.57,1.06,2.11,1.59,4.53,1.59,7.26,0,4.23-1.06,7.92-3.17,11.09-2.11,3.17-5.06,5.64-8.84,7.41-3.78,1.77-8.2,2.66-13.24,2.66Z"/>
        <path class="st1" d="M358.84,170.83c-5.32,0-10.04-1.16-14.16-3.48-4.13-2.32-7.35-5.56-9.66-9.71-2.32-4.16-3.48-8.93-3.48-14.32,0-4.16.65-7.92,1.94-11.3,1.29-3.37,3.12-6.32,5.47-8.84,2.35-2.52,5.16-4.48,8.44-5.88,3.27-1.4,6.82-2.1,10.63-2.1,3.61,0,6.9.65,9.87,1.94,2.97,1.3,5.52,3.09,7.67,5.37,2.15,2.28,3.77,4.99,4.86,8.13,1.09,3.14,1.57,6.58,1.43,10.33l-.1,3.58h-44.48l-1.12-6.44h39.78l-1.84,1.74v-2.45c-.14-2.45-.85-4.82-2.15-7.11-1.3-2.28-3.12-4.14-5.47-5.57-2.35-1.43-5.16-2.15-8.44-2.15-3.82,0-7.12.77-9.92,2.3-2.8,1.53-4.94,3.8-6.44,6.8-1.5,3-2.25,6.71-2.25,11.15s.82,7.89,2.45,10.99c1.64,3.1,3.97,5.51,7,7.21,3.03,1.7,6.7,2.56,10.99,2.56,2.52,0,5.03-.42,7.52-1.28,2.49-.85,5.23-2.54,8.23-5.06l3.99,5.52c-1.57,1.57-3.44,2.95-5.62,4.14-2.18,1.19-4.57,2.15-7.16,2.86-2.59.72-5.25,1.07-7.98,1.07Z"/>
        <path class="st1" d="M392.79,169.8v-53.38h7.67l.2,14.21-.82-1.94c.75-2.39,1.96-4.6,3.63-6.65,1.67-2.04,3.66-3.68,5.98-4.91,2.32-1.23,4.87-1.84,7.67-1.84,1.16,0,2.25.09,3.27.26,1.02.17,1.87.39,2.56.66l-2.15,8.59c-.89-.41-1.79-.7-2.71-.87-.92-.17-1.79-.26-2.61-.26-2.32,0-4.4.41-6.24,1.23s-3.41,1.96-4.7,3.43c-1.3,1.47-2.28,3.15-2.97,5.06-.68,1.91-1.02,3.95-1.02,6.13v30.27h-7.77Z"/>
        <path class="st1" d="M452.6,169.8l-22.5-53.38h8.49l17.79,43.66-2.04,1.12,19.53-44.79h8.18l-23.93,53.38h-5.52Z"/>
        <path class="st1" d="M496.87,104.88c-1.91,0-3.36-.49-4.35-1.48-.99-.99-1.48-2.33-1.48-4.04s.51-3.07,1.53-4.09,2.45-1.53,4.29-1.53,3.27.5,4.29,1.48c1.02.99,1.53,2.37,1.53,4.14,0,1.64-.51,2.97-1.53,3.99s-2.45,1.53-4.29,1.53ZM493.09,169.8v-53.38h7.67v53.38h-7.67Z"/>
        <path class="st1" d="M540.02,170.83c-5.05,0-9.54-1.21-13.5-3.63-3.95-2.42-7.07-5.73-9.36-9.92-2.28-4.19-3.43-8.95-3.43-14.26s1.14-10.07,3.43-14.26c2.28-4.19,5.4-7.48,9.36-9.87,3.95-2.39,8.49-3.58,13.6-3.58,4.57,0,8.72.9,12.47,2.71,3.75,1.81,6.75,4.31,9,7.52l-4.5,5.52c-1.3-1.7-2.85-3.2-4.65-4.5-1.81-1.29-3.75-2.3-5.83-3.02-2.08-.72-4.14-1.07-6.19-1.07-3.61,0-6.85.9-9.71,2.71-2.86,1.81-5.13,4.24-6.8,7.31-1.67,3.07-2.51,6.58-2.51,10.53s.83,7.48,2.51,10.58c1.67,3.1,3.94,5.54,6.8,7.31,2.86,1.77,6.07,2.66,9.61,2.66,2.04,0,4.05-.32,6.03-.97,1.98-.65,3.85-1.59,5.62-2.81,1.77-1.23,3.41-2.76,4.91-4.6l4.5,5.52c-2.32,3.07-5.42,5.52-9.3,7.36-3.89,1.84-7.91,2.76-12.07,2.76Z"/>
        <path class="st1" d="M594.83,170.83c-5.32,0-10.04-1.16-14.16-3.48-4.13-2.32-7.35-5.56-9.66-9.71-2.32-4.16-3.48-8.93-3.48-14.32,0-4.16.65-7.92,1.94-11.3,1.29-3.37,3.12-6.32,5.47-8.84,2.35-2.52,5.16-4.48,8.44-5.88,3.27-1.4,6.82-2.1,10.63-2.1,3.61,0,6.9.65,9.87,1.94,2.97,1.3,5.52,3.09,7.67,5.37,2.15,2.28,3.77,4.99,4.86,8.13,1.09,3.14,1.57,6.58,1.43,10.33l-.1,3.58h-44.48l-1.12-6.44h39.78l-1.84,1.74v-2.45c-.14-2.45-.85-4.82-2.15-7.11-1.3-2.28-3.12-4.14-5.47-5.57-2.35-1.43-5.16-2.15-8.44-2.15-3.82,0-7.12.77-9.92,2.3-2.8,1.53-4.94,3.8-6.44,6.8-1.5,3-2.25,6.71-2.25,11.15s.82,7.89,2.45,10.99c1.64,3.1,3.97,5.51,7,7.21,3.03,1.7,6.7,2.56,10.99,2.56,2.52,0,5.03-.42,7.52-1.28,2.49-.85,5.23-2.54,8.23-5.06l3.99,5.52c-1.57,1.57-3.44,2.95-5.62,4.14-2.18,1.19-4.57,2.15-7.16,2.86-2.59.72-5.25,1.07-7.98,1.07Z"/>
      </g>
    </g>
  </g>
  <g class="st3">
    <path class="st2" d="M226.24,170.64L182.77,8.38c-.48-1.8-2.34-2.87-4.14-2.39h0c-29.82,7.99-51.95,30.33-60.96,57.6-1.4,4.24-7.49,4.03-8.65-.29L92.73,2.51c-.48-1.8-2.34-2.87-4.14-2.39L6.65,22.07c-1.8.48-2.87,2.34-2.39,4.14l43.53,162.45c.48,1.8,2.32,2.79,4.09,2.2h0c29.82-7.99,51.95-30.33,60.96-57.6,1.4-4.24,7.49-4.03,8.65.29l16.29,60.8c.48,1.8,2.34,2.87,4.14,2.39l81.94-21.96c1.8-.48,2.87-2.34,2.39-4.14Z"/>
    <g>
      <g>
        <path class="st0" d="M271.88,76.43V27.15h11.97v49.28h-11.97ZM276.53,57.21l.07-10.7h32.17v10.7h-32.24ZM302.44,76.43V27.15h11.97v49.28h-11.97Z"/>
        <path class="st0" d="M320.46,76.43l19.5-49.28h10.14l19.36,49.28h-12.11l-9.29-24.99c-.38-.99-.75-2.04-1.13-3.17-.38-1.13-.75-2.29-1.13-3.48-.38-1.2-.74-2.37-1.09-3.52-.35-1.15-.65-2.22-.88-3.2l2.11-.07c-.28,1.17-.6,2.32-.95,3.45s-.7,2.24-1.06,3.34c-.35,1.1-.74,2.21-1.16,3.31-.42,1.1-.82,2.24-1.2,3.41l-9.29,24.92h-11.83ZM329.75,66.99l3.73-9.01h22.67l3.66,9.01h-30.06Z"/>
        <path class="st0" d="M375.58,76.43V27.15h21.26c3.1,0,5.85.7,8.27,2.11,2.42,1.41,4.34,3.33,5.77,5.77,1.43,2.44,2.15,5.19,2.15,8.24s-.72,6.04-2.15,8.55c-1.43,2.51-3.36,4.49-5.77,5.95-2.42,1.46-5.17,2.18-8.27,2.18h-9.29v16.47h-11.97ZM387.33,49.47h7.81c1.03,0,1.97-.26,2.82-.77.84-.52,1.52-1.22,2.04-2.11.52-.89.77-1.92.77-3.1s-.26-2.25-.77-3.1c-.52-.84-1.2-1.5-2.04-1.97-.84-.47-1.78-.7-2.82-.7h-7.81v11.76Z"/>
        <path class="st0" d="M422.18,76.43V27.15h21.26c3.1,0,5.85.7,8.27,2.11,2.42,1.41,4.34,3.33,5.77,5.77,1.43,2.44,2.15,5.19,2.15,8.24s-.72,6.04-2.15,8.55c-1.43,2.51-3.36,4.49-5.77,5.95-2.42,1.46-5.17,2.18-8.27,2.18h-9.29v16.47h-11.97ZM433.93,49.47h7.81c1.03,0,1.97-.26,2.82-.77.84-.52,1.52-1.22,2.04-2.11.52-.89.77-1.92.77-3.1s-.26-2.25-.77-3.1c-.52-.84-1.2-1.5-2.04-1.97-.84-.47-1.78-.7-2.82-.7h-7.81v11.76Z"/>
        <path class="st0" d="M481.52,76.43v-24.57l.49,3.45-19.92-28.16h13.59l15.21,21.82-6.2-.21,13.73-21.61h13.16l-19.08,28.93,1.06-4.79v25.13h-12.04Z"/>
        <path class="st0" d="M562.69,77.13c-3.94,0-7.51-.63-10.7-1.9-3.19-1.27-5.94-3.05-8.24-5.35-2.3-2.3-4.06-5.01-5.28-8.13-1.22-3.12-1.83-6.51-1.83-10.17s.64-7.03,1.94-10.1c1.29-3.07,3.13-5.76,5.53-8.06,2.39-2.3,5.22-4.08,8.48-5.35,3.26-1.27,6.82-1.9,10.66-1.9,2.72,0,5.29.35,7.71,1.06,2.42.7,4.61,1.67,6.58,2.89,1.97,1.22,3.64,2.63,5,4.22l-7.25,7.67c-1.17-1.13-2.38-2.06-3.63-2.82-1.24-.75-2.57-1.35-3.98-1.8-1.41-.45-2.91-.67-4.51-.67-2.07,0-3.95.38-5.67,1.13-1.71.75-3.22,1.8-4.51,3.13-1.29,1.34-2.29,2.91-2.99,4.72-.7,1.81-1.06,3.77-1.06,5.88s.37,4.08,1.13,5.91c.75,1.83,1.78,3.41,3.1,4.75,1.31,1.34,2.87,2.39,4.68,3.17,1.81.77,3.74,1.16,5.81,1.16,1.45,0,2.83-.23,4.12-.7,1.29-.47,2.4-1.1,3.34-1.9.94-.8,1.69-1.75,2.25-2.85.56-1.1.84-2.29.84-3.56v-1.83l1.55,2.39h-13.59v-9.36h23.16c.09.52.16,1.22.21,2.11.05.89.08,1.76.11,2.6.02.84.04,1.48.04,1.9,0,3.19-.58,6.11-1.72,8.76-1.15,2.65-2.76,4.94-4.82,6.86-2.07,1.93-4.51,3.43-7.32,4.51-2.82,1.08-5.87,1.62-9.15,1.62Z"/>
        <path class="st0" d="M594.86,76.43V27.15h11.97v38.72h21.96v10.56h-33.93Z"/>
        <path class="st0" d="M658.78,77.13c-3.76,0-7.18-.63-10.28-1.9-3.1-1.27-5.8-3.05-8.1-5.35-2.3-2.3-4.08-5-5.35-8.1-1.27-3.1-1.9-6.5-1.9-10.21s.63-7.11,1.9-10.21,3.05-5.8,5.35-8.1,5-4.08,8.1-5.35c3.1-1.27,6.5-1.9,10.21-1.9s7.11.63,10.21,1.9,5.8,3.05,8.1,5.35c2.3,2.3,4.07,5,5.31,8.1,1.24,3.1,1.86,6.5,1.86,10.21s-.62,7.05-1.86,10.17c-1.24,3.12-3.02,5.83-5.31,8.13-2.3,2.3-5,4.08-8.1,5.35-3.1,1.27-6.48,1.9-10.14,1.9ZM658.71,65.87c1.92,0,3.7-.35,5.32-1.06,1.62-.7,3.03-1.7,4.22-2.99,1.2-1.29,2.12-2.8,2.78-4.54.66-1.74.99-3.64.99-5.7s-.33-3.97-.99-5.7c-.66-1.74-1.58-3.25-2.78-4.54-1.2-1.29-2.6-2.29-4.22-2.99-1.62-.7-3.39-1.06-5.32-1.06s-3.7.35-5.31,1.06c-1.62.7-3.04,1.7-4.26,2.99-1.22,1.29-2.15,2.8-2.78,4.54-.63,1.74-.95,3.64-.95,5.7s.32,3.98.95,5.74c.63,1.76,1.56,3.27,2.78,4.54,1.22,1.27,2.64,2.25,4.26,2.96s3.39,1.06,5.31,1.06Z"/>
        <path class="st0" d="M693.48,76.43V27.15h21.75c3.38,0,6.24.48,8.59,1.44,2.35.96,4.12,2.35,5.32,4.15,1.2,1.81,1.8,3.98,1.8,6.51,0,2.82-.69,5.19-2.08,7.11-1.38,1.92-3.39,3.22-6.02,3.87l-.14-1.34c2.21.47,4.12,1.29,5.74,2.46,1.62,1.17,2.87,2.62,3.77,4.33.89,1.71,1.34,3.65,1.34,5.81,0,2.49-.42,4.66-1.27,6.51-.84,1.85-2.07,3.41-3.66,4.68s-3.46,2.21-5.6,2.82c-2.14.61-4.49.92-7.07.92h-22.46ZM704.75,46.93h8.8c1.22,0,2.26-.2,3.13-.6.87-.4,1.52-.96,1.97-1.69.45-.73.67-1.61.67-2.64,0-1.5-.52-2.69-1.55-3.56-1.03-.87-2.58-1.3-4.65-1.3h-8.38v9.79ZM704.75,66.43h10.77c1.31,0,2.43-.21,3.34-.63.92-.42,1.63-1.04,2.15-1.87.52-.82.77-1.82.77-2.99,0-1.08-.27-1.99-.81-2.75-.54-.75-1.3-1.33-2.29-1.72-.99-.4-2.16-.6-3.52-.6h-10.42v10.56Z"/>
        <path class="st0" d="M736.56,76.43l19.5-49.28h10.14l19.36,49.28h-12.11l-9.29-24.99c-.38-.99-.75-2.04-1.13-3.17-.38-1.13-.75-2.29-1.13-3.48-.38-1.2-.74-2.37-1.09-3.52-.35-1.15-.65-2.22-.88-3.2l2.11-.07c-.28,1.17-.6,2.32-.95,3.45-.35,1.13-.7,2.24-1.06,3.34-.35,1.1-.74,2.21-1.16,3.31-.42,1.1-.82,2.24-1.2,3.41l-9.29,24.92h-11.83ZM745.86,66.99l3.73-9.01h22.67l3.66,9.01h-30.06Z"/>
        <path class="st0" d="M791.68,76.43V27.15h11.97v38.72h21.96v10.56h-33.93Z"/>
      </g>
      <g>
        <path class="st0" d="M297.08,170.83c-3.61,0-7.02-.51-10.23-1.53-3.2-1.02-6.13-2.56-8.79-4.6-2.66-2.05-5.01-4.57-7.06-7.57l5.52-6.14c3.2,4.57,6.49,7.77,9.87,9.61s7.17,2.76,11.4,2.76c3.07,0,5.86-.51,8.38-1.53,2.52-1.02,4.5-2.45,5.93-4.29,1.43-1.84,2.15-3.95,2.15-6.34,0-1.57-.26-2.97-.77-4.19-.51-1.23-1.28-2.32-2.3-3.27-1.02-.95-2.28-1.81-3.78-2.56-1.5-.75-3.22-1.43-5.16-2.05-1.94-.61-4.11-1.23-6.49-1.84-3.48-.82-6.53-1.79-9.15-2.91-2.62-1.12-4.84-2.51-6.65-4.14-1.81-1.64-3.17-3.53-4.09-5.68-.92-2.15-1.38-4.69-1.38-7.62s.6-5.38,1.79-7.77c1.19-2.39,2.85-4.45,4.96-6.19,2.11-1.74,4.6-3.08,7.46-4.04,2.86-.95,5.93-1.43,9.2-1.43,3.68,0,6.97.5,9.87,1.48,2.9.99,5.47,2.44,7.72,4.35,2.25,1.91,4.19,4.19,5.83,6.85l-5.62,5.52c-1.43-2.25-3.05-4.19-4.86-5.83-1.81-1.64-3.78-2.88-5.93-3.73-2.15-.85-4.52-1.28-7.11-1.28-3,0-5.64.51-7.92,1.53-2.28,1.02-4.07,2.44-5.37,4.24-1.3,1.81-1.94,3.87-1.94,6.19,0,1.7.31,3.22.92,4.55.61,1.33,1.58,2.49,2.91,3.48,1.33.99,3.07,1.88,5.21,2.66,2.15.78,4.72,1.52,7.72,2.2,3.54.82,6.73,1.81,9.56,2.97,2.83,1.16,5.25,2.54,7.26,4.14,2.01,1.6,3.54,3.46,4.6,5.57,1.06,2.11,1.59,4.53,1.59,7.26,0,4.23-1.06,7.92-3.17,11.09-2.11,3.17-5.06,5.64-8.84,7.41-3.78,1.77-8.2,2.66-13.24,2.66Z"/>
        <path class="st0" d="M358.84,170.83c-5.32,0-10.04-1.16-14.16-3.48-4.13-2.32-7.35-5.56-9.66-9.71-2.32-4.16-3.48-8.93-3.48-14.32,0-4.16.65-7.92,1.94-11.3,1.29-3.37,3.12-6.32,5.47-8.84,2.35-2.52,5.16-4.48,8.44-5.88,3.27-1.4,6.82-2.1,10.63-2.1,3.61,0,6.9.65,9.87,1.94,2.97,1.3,5.52,3.09,7.67,5.37,2.15,2.28,3.77,4.99,4.86,8.13,1.09,3.14,1.57,6.58,1.43,10.33l-.1,3.58h-44.48l-1.12-6.44h39.78l-1.84,1.74v-2.45c-.14-2.45-.85-4.82-2.15-7.11-1.3-2.28-3.12-4.14-5.47-5.57-2.35-1.43-5.16-2.15-8.44-2.15-3.82,0-7.12.77-9.92,2.3-2.8,1.53-4.94,3.8-6.44,6.8-1.5,3-2.25,6.71-2.25,11.15s.82,7.89,2.45,10.99c1.64,3.1,3.97,5.51,7,7.21,3.03,1.7,6.7,2.56,10.99,2.56,2.52,0,5.03-.42,7.52-1.28,2.49-.85,5.23-2.54,8.23-5.06l3.99,5.52c-1.57,1.57-3.44,2.95-5.62,4.14-2.18,1.19-4.57,2.15-7.16,2.86-2.59.72-5.25,1.07-7.98,1.07Z"/>
        <path class="st0" d="M392.79,169.8v-53.38h7.67l.2,14.21-.82-1.94c.75-2.39,1.96-4.6,3.63-6.65,1.67-2.04,3.66-3.68,5.98-4.91,2.32-1.23,4.87-1.84,7.67-1.84,1.16,0,2.25.09,3.27.26,1.02.17,1.87.39,2.56.66l-2.15,8.59c-.89-.41-1.79-.7-2.71-.87-.92-.17-1.79-.26-2.61-.26-2.32,0-4.4.41-6.24,1.23s-3.41,1.96-4.7,3.43c-1.3,1.47-2.28,3.15-2.97,5.06-.68,1.91-1.02,3.95-1.02,6.13v30.27h-7.77Z"/>
        <path class="st0" d="M452.6,169.8l-22.5-53.38h8.49l17.79,43.66-2.04,1.12,19.53-44.79h8.18l-23.93,53.38h-5.52Z"/>
        <path class="st0" d="M496.87,104.88c-1.91,0-3.36-.49-4.35-1.48-.99-.99-1.48-2.33-1.48-4.04s.51-3.07,1.53-4.09,2.45-1.53,4.29-1.53,3.27.5,4.29,1.48c1.02.99,1.53,2.37,1.53,4.14,0,1.64-.51,2.97-1.53,3.99s-2.45,1.53-4.29,1.53ZM493.09,169.8v-53.38h7.67v53.38h-7.67Z"/>
        <path class="st0" d="M540.02,170.83c-5.05,0-9.54-1.21-13.5-3.63-3.95-2.42-7.07-5.73-9.36-9.92-2.28-4.19-3.43-8.95-3.43-14.26s1.14-10.07,3.43-14.26c2.28-4.19,5.4-7.48,9.36-9.87,3.95-2.39,8.49-3.58,13.6-3.58,4.57,0,8.72.9,12.47,2.71,3.75,1.81,6.75,4.31,9,7.52l-4.5,5.52c-1.3-1.7-2.85-3.2-4.65-4.5-1.81-1.29-3.75-2.3-5.83-3.02-2.08-.72-4.14-1.07-6.19-1.07-3.61,0-6.85.9-9.71,2.71-2.86,1.81-5.13,4.24-6.8,7.31-1.67,3.07-2.51,6.58-2.51,10.53s.83,7.48,2.51,10.58c1.67,3.1,3.94,5.54,6.8,7.31,2.86,1.77,6.07,2.66,9.61,2.66,2.04,0,4.05-.32,6.03-.97,1.98-.65,3.85-1.59,5.62-2.81,1.77-1.23,3.41-2.76,4.91-4.6l4.5,5.52c-2.32,3.07-5.42,5.52-9.3,7.36-3.89,1.84-7.91,2.76-12.07,2.76Z"/>
        <path class="st0" d="M594.83,170.83c-5.32,0-10.04-1.16-14.16-3.48-4.13-2.32-7.35-5.56-9.66-9.71-2.32-4.16-3.48-8.93-3.48-14.32,0-4.16.65-7.92,1.94-11.3,1.29-3.37,3.12-6.32,5.47-8.84,2.35-2.52,5.16-4.48,8.44-5.88,3.27-1.4,6.82-2.1,10.63-2.1,3.61,0,6.9.65,9.87,1.94,2.97,1.3,5.52,3.09,7.67,5.37,2.15,2.28,3.77,4.99,4.86,8.13,1.09,3.14,1.57,6.58,1.43,10.33l-.1,3.58h-44.48l-1.12-6.44h39.78l-1.84,1.74v-2.45c-.14-2.45-.85-4.82-2.15-7.11-1.3-2.28-3.12-4.14-5.47-5.57-2.35-1.43-5.16-2.15-8.44-2.15-3.82,0-7.12.77-9.92,2.3-2.8,1.53-4.94,3.8-6.44,6.8-1.5,3-2.25,6.71-2.25,11.15s.82,7.89,2.45,10.99c1.64,3.1,3.97,5.51,7,7.21,3.03,1.7,6.7,2.56,10.99,2.56,2.52,0,5.03-.42,7.52-1.28,2.49-.85,5.23-2.54,8.23-5.06l3.99,5.52c-1.57,1.57-3.44,2.95-5.62,4.14-2.18,1.19-4.57,2.15-7.16,2.86-2.59.72-5.25,1.07-7.98,1.07Z"/>
      </g>
    </g>
  </g>
  <g class="st3">
    <path class="st0" d="M226.24,170.64L182.77,8.38c-.48-1.8-2.34-2.87-4.14-2.39h0c-29.82,7.99-51.95,30.33-60.96,57.6-1.4,4.24-7.49,4.03-8.65-.29L92.73,2.51c-.48-1.8-2.34-2.87-4.14-2.39L6.65,22.07c-1.8.48-2.87,2.34-2.39,4.14l43.53,162.45c.48,1.8,2.32,2.79,4.09,2.2h0c29.82-7.99,51.95-30.33,60.96-57.6,1.4-4.24,7.49-4.03,8.65.29l16.29,60.8c.48,1.8,2.34,2.87,4.14,2.39l81.94-21.96c1.8-.48,2.87-2.34,2.39-4.14Z"/>
    <g>
      <g>
        <path class="st0" d="M271.88,76.43V27.15h11.97v49.28h-11.97ZM276.53,57.21l.07-10.7h32.17v10.7h-32.24ZM302.44,76.43V27.15h11.97v49.28h-11.97Z"/>
        <path class="st0" d="M320.46,76.43l19.5-49.28h10.14l19.36,49.28h-12.11l-9.29-24.99c-.38-.99-.75-2.04-1.13-3.17-.38-1.13-.75-2.29-1.13-3.48-.38-1.2-.74-2.37-1.09-3.52-.35-1.15-.65-2.22-.88-3.2l2.11-.07c-.28,1.17-.6,2.32-.95,3.45-.35,1.13-.7,2.24-1.06,3.34-.35,1.1-.74,2.21-1.16,3.31-.42,1.1-.82,2.24-1.2,3.41l-9.29,24.92h-11.83ZM329.75,66.99l3.73-9.01h22.67l3.66,9.01h-30.06Z"/>
        <path class="st0" d="M375.58,76.43V27.15h21.26c3.1,0,5.85.7,8.27,2.11,2.42,1.41,4.34,3.33,5.77,5.77,1.43,2.44,2.15,5.19,2.15,8.24s-.72,6.04-2.15,8.55c-1.43,2.51-3.36,4.49-5.77,5.95-2.42,1.46-5.17,2.18-8.27,2.18h-9.29v16.47h-11.97ZM387.33,49.47h7.81c1.03,0,1.97-.26,2.82-.77.84-.52,1.52-1.22,2.04-2.11.52-.89.77-1.92.77-3.1s-.26-2.25-.77-3.1c-.52-.84-1.2-1.5-2.04-1.97-.84-.47-1.78-.7-2.82-.7h-7.81v11.76Z"/>
        <path class="st0" d="M422.18,76.43V27.15h21.26c3.1,0,5.85.7,8.27,2.11,2.42,1.41,4.34,3.33,5.77,5.77,1.43,2.44,2.15,5.19,2.15,8.24s-.72,6.04-2.15,8.55c-1.43,2.51-3.36,4.49-5.77,5.95-2.42,1.46-5.17,2.18-8.27,2.18h-9.29v16.47h-11.97ZM433.93,49.47h7.81c1.03,0,1.97-.26,2.82-.77.84-.52,1.52-1.22,2.04-2.11.52-.89.77-1.92.77-3.1s-.26-2.25-.77-3.1c-.52-.84-1.2-1.5-2.04-1.97-.84-.47-1.78-.7-2.82-.7h-7.81v11.76Z"/>
        <path class="st0" d="M481.52,76.43v-24.57l.49,3.45-19.92-28.16h13.59l15.21,21.82-6.2-.21,13.73-21.61h13.16l-19.08,28.93,1.06-4.79v25.13h-12.04Z"/>
        <path class="st0" d="M562.69,77.13c-3.94,0-7.51-.63-10.7-1.9-3.19-1.27-5.94-3.05-8.24-5.35-2.3-2.3-4.06-5.01-5.28-8.13-1.22-3.12-1.83-6.51-1.83-10.17s.64-7.03,1.94-10.1c1.29-3.07,3.13-5.76,5.53-8.06,2.39-2.3,5.22-4.08,8.48-5.35,3.26-1.27,6.82-1.9,10.66-1.9,2.72,0,5.29.35,7.71,1.06,2.42.7,4.61,1.67,6.58,2.89,1.97,1.22,3.64,2.63,5,4.22l-7.25,7.67c-1.17-1.13-2.38-2.06-3.63-2.82-1.24-.75-2.57-1.35-3.98-1.8-1.41-.45-2.91-.67-4.51-.67-2.07,0-3.95.38-5.67,1.13-1.71.75-3.22,1.8-4.51,3.13-1.29,1.34-2.29,2.91-2.99,4.72-.7,1.81-1.06,3.77-1.06,5.88s.37,4.08,1.13,5.91c.75,1.83,1.78,3.41,3.1,4.75,1.31,1.34,2.87,2.39,4.68,3.17,1.81.77,3.74,1.16,5.81,1.16,1.45,0,2.83-.23,4.12-.7,1.29-.47,2.4-1.1,3.34-1.9.94-.8,1.69-1.75,2.25-2.85.56-1.1.84-2.29.84-3.56v-1.83l1.55,2.39h-13.59v-9.36h23.16c.09.52.16,1.22.21,2.11.05.89.08,1.76.11,2.6.02.84.04,1.48.04,1.9,0,3.19-.58,6.11-1.72,8.76-1.15,2.65-2.76,4.94-4.82,6.86-2.07,1.93-4.51,3.43-7.32,4.51-2.82,1.08-5.87,1.62-9.15,1.62Z"/>
        <path class="st0" d="M594.86,76.43V27.15h11.97v38.72h21.96v10.56h-33.93Z"/>
        <path class="st0" d="M658.78,77.13c-3.76,0-7.18-.63-10.28-1.9-3.1-1.27-5.8-3.05-8.1-5.35-2.3-2.3-4.08-5-5.35-8.1-1.27-3.1-1.9-6.5-1.9-10.21s.63-7.11,1.9-10.21c1.27-3.1,3.05-5.8,5.35-8.1,2.3-2.3,5-4.08,8.1-5.35,3.1-1.27,6.5-1.9,10.21-1.9s7.11.63,10.21,1.9c3.1,1.27,5.8,3.05,8.1,5.35,2.3,2.3,4.07,5,5.31,8.1,1.24,3.1,1.86,6.5,1.86,10.21s-.62,7.05-1.86,10.17c-1.24,3.12-3.02,5.83-5.31,8.13-2.3,2.3-5,4.08-8.1,5.35-3.1,1.27-6.48,1.9-10.14,1.9ZM658.71,65.87c1.92,0,3.7-.35,5.32-1.06,1.62-.7,3.03-1.7,4.22-2.99,1.2-1.29,2.12-2.8,2.78-4.54.66-1.74.99-3.64.99-5.7s-.33-3.97-.99-5.7c-.66-1.74-1.58-3.25-2.78-4.54-1.2-1.29-2.6-2.29-4.22-2.99-1.62-.7-3.39-1.06-5.32-1.06s-3.7.35-5.31,1.06c-1.62.7-3.04,1.7-4.26,2.99-1.22,1.29-2.15,2.8-2.78,4.54-.63,1.74-.95,3.64-.95,5.7s.32,3.98.95,5.74c.63,1.76,1.56,3.27,2.78,4.54,1.22,1.27,2.64,2.25,4.26,2.96s3.39,1.06,5.31,1.06Z"/>
        <path class="st0" d="M693.48,76.43V27.15h21.75c3.38,0,6.24.48,8.59,1.44,2.35.96,4.12,2.35,5.32,4.15,1.2,1.81,1.8,3.98,1.8,6.51,0,2.82-.69,5.19-2.08,7.11-1.38,1.92-3.39,3.22-6.02,3.87l-.14-1.34c2.21.47,4.12,1.29,5.74,2.46,1.62,1.17,2.87,2.62,3.77,4.33.89,1.71,1.34,3.65,1.34,5.81,0,2.49-.42,4.66-1.27,6.51-.84,1.85-2.07,3.41-3.66,4.68s-3.46,2.21-5.6,2.82c-2.14.61-4.49.92-7.07.92h-22.46ZM704.75,46.93h8.8c1.22,0,2.26-.2,3.13-.6.87-.4,1.52-.96,1.97-1.69.45-.73.67-1.61.67-2.64,0-1.5-.52-2.69-1.55-3.56-1.03-.87-2.58-1.3-4.65-1.3h-8.38v9.79ZM704.75,66.43h10.77c1.31,0,2.43-.21,3.34-.63.92-.42,1.63-1.04,2.15-1.87.52-.82.77-1.82.77-2.99,0-1.08-.27-1.99-.81-2.75-.54-.75-1.3-1.33-2.29-1.72-.99-.4-2.16-.6-3.52-.6h-10.42v10.56Z"/>
        <path class="st0" d="M736.56,76.43l19.5-49.28h10.14l19.36,49.28h-12.11l-9.29-24.99c-.38-.99-.75-2.04-1.13-3.17-.38-1.13-.75-2.29-1.13-3.48-.38-1.2-.74-2.37-1.09-3.52-.35-1.15-.65-2.22-.88-3.2l2.11-.07c-.28,1.17-.6,2.32-.95,3.45-.35,1.13-.7,2.24-1.06,3.34-.35,1.1-.74,2.21-1.16,3.31-.42,1.1-.82,2.24-1.2,3.41l-9.29,24.92h-11.83ZM745.86,66.99l3.73-9.01h22.67l3.66,9.01h-30.06Z"/>
        <path class="st0" d="M791.68,76.43V27.15h11.97v38.72h21.96v10.56h-33.93Z"/>
      </g>
      <g>
        <path class="st0" d="M297.08,170.83c-3.61,0-7.02-.51-10.23-1.53-3.2-1.02-6.13-2.56-8.79-4.6-2.66-2.05-5.01-4.57-7.06-7.57l5.52-6.14c3.2,4.57,6.49,7.77,9.87,9.61,3.37,1.84,7.17,2.76,11.4,2.76,3.07,0,5.86-.51,8.38-1.53,2.52-1.02,4.5-2.45,5.93-4.29,1.43-1.84,2.15-3.95,2.15-6.34,0-1.57-.26-2.97-.77-4.19-.51-1.23-1.28-2.32-2.3-3.27-1.02-.95-2.28-1.81-3.78-2.56-1.5-.75-3.22-1.43-5.16-2.05-1.94-.61-4.11-1.23-6.49-1.84-3.48-.82-6.53-1.79-9.15-2.91-2.62-1.12-4.84-2.51-6.65-4.14-1.81-1.64-3.17-3.53-4.09-5.68-.92-2.15-1.38-4.69-1.38-7.62s.6-5.38,1.79-7.77c1.19-2.39,2.85-4.45,4.96-6.19,2.11-1.74,4.6-3.08,7.46-4.04,2.86-.95,5.93-1.43,9.2-1.43,3.68,0,6.97.5,9.87,1.48,2.9.99,5.47,2.44,7.72,4.35,2.25,1.91,4.19,4.19,5.83,6.85l-5.62,5.52c-1.43-2.25-3.05-4.19-4.86-5.83-1.81-1.64-3.78-2.88-5.93-3.73-2.15-.85-4.52-1.28-7.11-1.28-3,0-5.64.51-7.92,1.53-2.28,1.02-4.07,2.44-5.37,4.24-1.3,1.81-1.94,3.87-1.94,6.19,0,1.7.31,3.22.92,4.55.61,1.33,1.58,2.49,2.91,3.48,1.33.99,3.07,1.88,5.21,2.66,2.15.78,4.72,1.52,7.72,2.2,3.54.82,6.73,1.81,9.56,2.97,2.83,1.16,5.25,2.54,7.26,4.14,2.01,1.6,3.54,3.46,4.6,5.57,1.06,2.11,1.59,4.53,1.59,7.26,0,4.23-1.06,7.92-3.17,11.09-2.11,3.17-5.06,5.64-8.84,7.41-3.78,1.77-8.2,2.66-13.24,2.66Z"/>
        <path class="st0" d="M358.84,170.83c-5.32,0-10.04-1.16-14.16-3.48-4.13-2.32-7.35-5.56-9.66-9.71-2.32-4.16-3.48-8.93-3.48-14.32,0-4.16.65-7.92,1.94-11.3,1.29-3.37,3.12-6.32,5.47-8.84,2.35-2.52,5.16-4.48,8.44-5.88,3.27-1.4,6.82-2.1,10.63-2.1,3.61,0,6.9.65,9.87,1.94,2.97,1.3,5.52,3.09,7.67,5.37,2.15,2.28,3.77,4.99,4.86,8.13,1.09,3.14,1.57,6.58,1.43,10.33l-.1,3.58h-44.48l-1.12-6.44h39.78l-1.84,1.74v-2.45c-.14-2.45-.85-4.82-2.15-7.11-1.3-2.28-3.12-4.14-5.47-5.57-2.35-1.43-5.16-2.15-8.44-2.15-3.82,0-7.12.77-9.92,2.3-2.8,1.53-4.94,3.8-6.44,6.8-1.5,3-2.25,6.71-2.25,11.15s.82,7.89,2.45,10.99c1.64,3.1,3.97,5.51,7,7.21,3.03,1.7,6.7,2.56,10.99,2.56,2.52,0,5.03-.42,7.52-1.28,2.49-.85,5.23-2.54,8.23-5.06l3.99,5.52c-1.57,1.57-3.44,2.95-5.62,4.14-2.18,1.19-4.57,2.15-7.16,2.86-2.59.72-5.25,1.07-7.98,1.07Z"/>
        <path class="st0" d="M392.79,169.8v-53.38h7.67l.2,14.21-.82-1.94c.75-2.39,1.96-4.6,3.63-6.65,1.67-2.04,3.66-3.68,5.98-4.91,2.32-1.23,4.87-1.84,7.67-1.84,1.16,0,2.25.09,3.27.26,1.02.17,1.87.39,2.56.66l-2.15,8.59c-.89-.41-1.79-.7-2.71-.87-.92-.17-1.79-.26-2.61-.26-2.32,0-4.4.41-6.24,1.23-1.84.82-3.41,1.96-4.7,3.43-1.3,1.47-2.28,3.15-2.97,5.06-.68,1.91-1.02,3.95-1.02,6.13v30.27h-7.77Z"/>
        <path class="st0" d="M452.6,169.8l-22.5-53.38h8.49l17.79,43.66-2.04,1.12,19.53-44.79h8.18l-23.93,53.38h-5.52Z"/>
        <path class="st0" d="M496.87,104.88c-1.91,0-3.36-.49-4.35-1.48-.99-.99-1.48-2.33-1.48-4.04s.51-3.07,1.53-4.09,2.45-1.53,4.29-1.53,3.27.5,4.29,1.48c1.02.99,1.53,2.37,1.53,4.14,0,1.64-.51,2.97-1.53,3.99s-2.45,1.53-4.29,1.53ZM493.09,169.8v-53.38h7.67v53.38h-7.67Z"/>
        <path class="st0" d="M540.02,170.83c-5.05,0-9.54-1.21-13.5-3.63-3.95-2.42-7.07-5.73-9.36-9.92-2.28-4.19-3.43-8.95-3.43-14.26s1.14-10.07,3.43-14.26c2.28-4.19,5.4-7.48,9.36-9.87,3.95-2.39,8.49-3.58,13.6-3.58,4.57,0,8.72.9,12.47,2.71,3.75,1.81,6.75,4.31,9,7.52l-4.5,5.52c-1.3-1.7-2.85-3.2-4.65-4.5-1.81-1.29-3.75-2.3-5.83-3.02-2.08-.72-4.14-1.07-6.19-1.07-3.61,0-6.85.9-9.71,2.71-2.86,1.81-5.13,4.24-6.8,7.31-1.67,3.07-2.51,6.58-2.51,10.53s.83,7.48,2.51,10.58c1.67,3.1,3.94,5.54,6.8,7.31,2.86,1.77,6.07,2.66,9.61,2.66,2.04,0,4.05-.32,6.03-.97,1.98-.65,3.85-1.59,5.62-2.81,1.77-1.23,3.41-2.76,4.91-4.6l4.5,5.52c-2.32,3.07-5.42,5.52-9.3,7.36-3.89,1.84-7.91,2.76-12.07,2.76Z"/>
        <path class="st0" d="M594.83,170.83c-5.32,0-10.04-1.16-14.16-3.48-4.13-2.32-7.35-5.56-9.66-9.71-2.32-4.16-3.48-8.93-3.48-14.32,0-4.16.65-7.92,1.94-11.3,1.29-3.37,3.12-6.32,5.47-8.84,2.35-2.52,5.16-4.48,8.44-5.88,3.27-1.4,6.82-2.1,10.63-2.1,3.61,0,6.9.65,9.87,1.94,2.97,1.3,5.52,3.09,7.67,5.37,2.15,2.28,3.77,4.99,4.86,8.13,1.09,3.14,1.57,6.58,1.43,10.33l-.1,3.58h-44.48l-1.12-6.44h39.78l-1.84,1.74v-2.45c-.14-2.45-.85-4.82-2.15-7.11-1.3-2.28-3.12-4.14-5.47-5.57-2.35-1.43-5.16-2.15-8.44-2.15-3.82,0-7.12.77-9.92,2.3-2.8,1.53-4.94,3.8-6.44,6.8-1.5,3-2.25,6.71-2.25,11.15s.82,7.89,2.45,10.99c1.64,3.1,3.97,5.51,7,7.21,3.03,1.7,6.7,2.56,10.99,2.56,2.52,0,5.03-.42,7.52-1.28,2.49-.85,5.23-2.54,8.23-5.06l3.99,5.52c-1.57,1.57-3.44,2.95-5.62,4.14-2.18,1.19-4.57,2.15-7.16,2.86-2.59.72-5.25,1.07-7.98,1.07Z"/>
      </g>
    </g>
  </g>
</svg>